<svg width="50" height="50" viewBox="0 0 50 50" fill="none" xmlns="http://www.w3.org/2000/svg">
<rect width="50" height="50" rx="15" fill="white"/>
<path d="M43.3486 17.0774C42.5983 15.3617 41.6052 13.7628 40.3997 12.3297C38.6179 10.148 36.3941 8.36847 33.8749 7.10813C31.3556 5.84781 28.598 5.13528 25.7836 5.01746C22.9692 4.89964 20.1617 5.37918 17.5459 6.42456C14.9302 7.46993 12.5655 9.05741 10.6075 11.0825C8.64942 13.1076 7.14247 15.5245 6.18578 18.174C5.22909 20.8234 4.84433 23.6455 5.05686 26.4543C5.2694 29.2632 6.07437 31.9952 7.41883 34.4705C8.76328 36.946 10.6167 39.1085 12.8572 40.8159C14.2948 41.9334 15.8832 42.8418 17.5754 43.5142C19.9477 44.4864 22.4869 44.9871 25.0508 44.9886C30.3431 44.9769 35.4149 42.8673 39.1546 39.1222C42.894 35.3772 44.9961 30.3023 45 25.0099C45.0038 22.28 44.4416 19.579 43.3486 17.0774ZM25.036 9.07119C27.3385 9.07095 29.6132 9.57418 31.7005 10.5456C31.1915 10.7656 30.6563 10.9192 30.1081 11.0027C28.3043 11.2638 26.6333 12.1013 25.3445 13.3901C24.0557 14.6789 23.2182 16.3499 22.9571 18.1538C22.8425 19.1654 22.3823 20.1065 21.6544 20.8184C20.9265 21.5302 19.9753 21.969 18.9613 22.061C17.1575 22.3222 15.4865 23.1596 14.1977 24.4484C12.9089 25.7373 12.0714 27.4082 11.8103 29.2121C11.7219 30.174 11.3115 31.078 10.6455 31.7776C9.4964 29.3496 8.9802 26.6703 9.14493 23.9892C9.30965 21.308 10.1499 18.7121 11.5876 16.443C13.0253 14.1739 15.0136 12.3054 17.3676 11.0113C19.7216 9.71726 22.3646 9.03971 25.0508 9.0417L25.036 9.07119ZM12.8424 35.331C13.0194 35.1688 13.1963 35.0214 13.3732 34.8444C14.685 33.5727 15.527 31.8939 15.7618 30.082C15.857 29.0634 16.3118 28.1121 17.0446 27.3985C17.7498 26.6645 18.6989 26.2135 19.7133 26.1305C21.5171 25.8694 23.1881 25.0319 24.4769 23.7431C25.7657 22.4543 26.6032 20.7833 26.8643 18.9794C26.9282 17.9142 27.3853 16.9105 28.1471 16.1633C28.8697 15.4435 29.8278 15.0089 30.8453 14.9395C32.5025 14.7115 34.048 13.9748 35.2687 12.831C36.6586 13.9841 37.8361 15.3713 38.7483 16.93C38.6923 17.0056 38.628 17.0749 38.5567 17.1364C37.8529 17.8769 36.905 18.3378 35.8879 18.4339C34.0822 18.6905 32.4087 19.5265 31.119 20.816C29.8295 22.1057 28.9934 23.7792 28.7369 25.5849C28.6329 26.5999 28.1813 27.5479 27.4585 28.268C26.7356 28.9882 25.7861 29.4363 24.7706 29.5364C22.9615 29.7955 21.2843 30.6314 19.988 31.9196C18.6918 33.208 17.8456 34.88 17.5754 36.6875C17.496 37.408 17.2485 38.1 16.8529 38.7075C15.3401 37.8092 13.9853 36.6686 12.8424 35.331ZM25.036 41.0223C23.5399 41.024 22.0509 40.8155 20.6127 40.4031C21.1047 39.486 21.4245 38.4865 21.5564 37.4542C21.6597 36.4414 22.1093 35.4953 22.8291 34.7754C23.5489 34.0556 24.4951 33.6061 25.5079 33.5027C27.3143 33.2445 28.9887 32.4084 30.2805 31.1193C31.5721 29.8303 32.4118 28.1575 32.6736 26.3517C32.777 25.3389 33.2266 24.3927 33.9464 23.6729C34.6662 22.9531 35.6124 22.5035 36.6252 22.4001C37.9846 22.2234 39.2803 21.7172 40.3997 20.9257C41.0213 23.2817 41.0949 25.7488 40.615 28.1376C40.1351 30.5265 39.1142 32.7739 37.6309 34.707C36.1476 36.64 34.2413 38.2078 32.0579 39.2897C29.8747 40.3717 27.4727 40.9392 25.036 40.9486V41.0223Z" fill="#141C5C"/>
</svg>
